{
    "asset" : {
        "generator" : "Khronos glTF Blender I/O v1.1.46",
        "version" : "2.0"
    },
    "extensionsUsed" : [
        "KHR_materials_unlit"
    ],
    "scene" : 0,
    "scenes" : [
        {
            "name" : "Scene",
            "nodes" : [
                0,
                1,
                2,
                3,
                4,
                5,
                6,
                7,
                8,
                9,
                10
            ]
        }
    ],
    "nodes" : [
        {
            "camera" : 0,
            "name" : "Camera",
            "translation" : [
                0.058216795325279236,
                0.09453273564577103,
                0.9583538174629211
            ]
        },
        {
            "mesh" : 0,
            "name" : "rect28",
            "translation" : [
                -0.0015367307933047414,
                0,
                -6.39960344415158e-05
            ]
        },
        {
            "mesh" : 1,
            "name" : "rect28.001",
            "rotation" : [
                0,
                -0.30901700258255005,
                0,
                0.9510565400123596
            ],
            "translation" : [
                -0.04054836556315422,
                0.00020763462816830724,
                -0.0298512764275074
            ]
        },
        {
            "mesh" : 2,
            "name" : "rect28.002",
            "rotation" : [
                0,
                -0.5877852439880371,
                0,
                0.80901700258255
            ],
            "translation" : [
                -0.05457612872123718,
                0.0002114045200869441,
                -0.07684211432933807
            ]
        },
        {
            "mesh" : 3,
            "name" : "rect28.003",
            "rotation" : [
                0,
                -0.80901700258255,
                0,
                0.5877853035926819
            ],
            "translation" : [
                -0.038304779678583145,
                0,
                -0.12309955805540085
            ]
        },
        {
            "mesh" : 4,
            "name" : "rect28.004",
            "rotation" : [
                0,
                -0.9510565400123596,
                0,
                0.30901697278022766
            ],
            "translation" : [
                0.0020558363758027554,
                0,
                -0.1509661227464676
            ]
        },
        {
            "mesh" : 5,
            "name" : "rect28.005",
            "rotation" : [
                0,
                -1,
                0,
                -1.6292068494294654e-07
            ],
            "translation" : [
                0.051107849925756454,
                0,
                -0.14978964626789093
            ]
        },
        {
            "mesh" : 6,
            "name" : "rect28.006",
            "rotation" : [
                0,
                -0.9510564804077148,
                0,
                -0.309017151594162
            ],
            "translation" : [
                0.09008236974477768,
                0,
                -0.12001611292362213
            ]
        },
        {
            "mesh" : 7,
            "name" : "rect28.007",
            "rotation" : [
                0,
                -0.80901700258255,
                0,
                -0.5877851843833923
            ],
            "translation" : [
                0.10412624478340149,
                0,
                -0.07300548255443573
            ]
        },
        {
            "mesh" : 8,
            "name" : "rect28.008",
            "rotation" : [
                0,
                -0.5877851843833923,
                0,
                -0.8090170621871948
            ],
            "translation" : [
                0.08791568130254745,
                0,
                -0.026745498180389404
            ]
        },
        {
            "mesh" : 9,
            "name" : "rect28.009",
            "rotation" : [
                0,
                -0.30901703238487244,
                0,
                -0.9510564804077148
            ],
            "translation" : [
                0.047683246433734894,
                0,
                0.0010610681492835283
            ]
        }
    ],
    "cameras" : [
        {
            "name" : "Camera",
            "perspective" : {
                "yfov" : 0.39959652046304894,
                "zfar" : 100,
                "znear" : 0.10000000149011612
            },
            "type" : "perspective"
        }
    ],
    "materials" : [
        {
            "doubleSided" : true,
            "extensions" : {
                "KHR_materials_unlit" : {}
            },
            "name" : "SVGMat.019",
            "pbrMetallicRoughness" : {
                "baseColorTexture" : {
                    "index" : 0,
                    "texCoord" : 0
                }
            }
        }
    ],
    "meshes" : [
        {
            "name" : "rect28",
            "primitives" : [
                {
                    "attributes" : {
                        "POSITION" : 0,
                        "NORMAL" : 1,
                        "TEXCOORD_0" : 2
                    },
                    "indices" : 3,
                    "material" : 0
                }
            ]
        },
        {
            "name" : "rect28.001",
            "primitives" : [
                {
                    "attributes" : {
                        "POSITION" : 4,
                        "NORMAL" : 5,
                        "TEXCOORD_0" : 6
                    },
                    "indices" : 7,
                    "material" : 0
                }
            ]
        },
        {
            "name" : "rect28.002",
            "primitives" : [
                {
                    "attributes" : {
                        "POSITION" : 8,
                        "NORMAL" : 9,
                        "TEXCOORD_0" : 10
                    },
                    "indices" : 11,
                    "material" : 0
                }
            ]
        },
        {
            "name" : "rect28.003",
            "primitives" : [
                {
                    "attributes" : {
                        "POSITION" : 12,
                        "NORMAL" : 13,
                        "TEXCOORD_0" : 14
                    },
                    "indices" : 15,
                    "material" : 0
                }
            ]
        },
        {
            "name" : "rect28.004",
            "primitives" : [
                {
                    "attributes" : {
                        "POSITION" : 16,
                        "NORMAL" : 17,
                        "TEXCOORD_0" : 18
                    },
                    "indices" : 19,
                    "material" : 0
                }
            ]
        },
        {
            "name" : "rect28.005",
            "primitives" : [
                {
                    "attributes" : {
                        "POSITION" : 20,
                        "NORMAL" : 21,
                        "TEXCOORD_0" : 22
                    },
                    "indices" : 23,
                    "material" : 0
                }
            ]
        },
        {
            "name" : "rect28.006",
            "primitives" : [
                {
                    "attributes" : {
                        "POSITION" : 24,
                        "NORMAL" : 25,
                        "TEXCOORD_0" : 26
                    },
                    "indices" : 27,
                    "material" : 0
                }
            ]
        },
        {
            "name" : "rect28.007",
            "primitives" : [
                {
                    "attributes" : {
                        "POSITION" : 28,
                        "NORMAL" : 29,
                        "TEXCOORD_0" : 30
                    },
                    "indices" : 31,
                    "material" : 0
                }
            ]
        },
        {
            "name" : "rect28.008",
            "primitives" : [
                {
                    "attributes" : {
                        "POSITION" : 32,
                        "NORMAL" : 33,
                        "TEXCOORD_0" : 34
                    },
                    "indices" : 35,
                    "material" : 0
                }
            ]
        },
        {
            "name" : "rect28.009",
            "primitives" : [
                {
                    "attributes" : {
                        "POSITION" : 36,
                        "NORMAL" : 37,
                        "TEXCOORD_0" : 38
                    },
                    "indices" : 39,
                    "material" : 0
                }
            ]
        }
    ],
    "textures" : [
        {
            "source" : 0
        }
    ],
    "images" : [
        {
            "bufferView" : 4,
            "mimeType" : "image/png",
            "name" : "brassv2"
        }
    ],
    "accessors" : [
        {
            "bufferView" : 0,
            "componentType" : 5126,
            "count" : 2357,
            "max" : [
                0.050643909722566605,
                0.23695476353168488,
                0
            ],
            "min" : [
                0.001999917672947049,
                0.0019996166229248047,
                0
            ],
            "type" : "VEC3"
        },
        {
            "bufferView" : 1,
            "componentType" : 5126,
            "count" : 2357,
            "type" : "VEC3"
        },
        {
            "bufferView" : 2,
            "componentType" : 5126,
            "count" : 2357,
            "type" : "VEC2"
        },
        {
            "bufferView" : 3,
            "componentType" : 5123,
            "count" : 5298,
            "type" : "SCALAR"
        },
        {
            "bufferView" : 5,
            "componentType" : 5126,
            "count" : 2254,
            "max" : [
                0.050643909722566605,
                0.23695476353168488,
                0
            ],
            "min" : [
                0.001999917672947049,
                0.0019996166229248047,
                0
            ],
            "type" : "VEC3"
        },
        {
            "bufferView" : 6,
            "componentType" : 5126,
            "count" : 2254,
            "type" : "VEC3"
        },
        {
            "bufferView" : 7,
            "componentType" : 5126,
            "count" : 2254,
            "type" : "VEC2"
        },
        {
            "bufferView" : 8,
            "componentType" : 5123,
            "count" : 5304,
            "type" : "SCALAR"
        },
        {
            "bufferView" : 9,
            "componentType" : 5126,
            "count" : 2286,
            "max" : [
                0.050643909722566605,
                0.23695476353168488,
                0
            ],
            "min" : [
                0.001999917672947049,
                0.0019996166229248047,
                0
            ],
            "type" : "VEC3"
        },
        {
            "bufferView" : 10,
            "componentType" : 5126,
            "count" : 2286,
            "type" : "VEC3"
        },
        {
            "bufferView" : 11,
            "componentType" : 5126,
            "count" : 2286,
            "type" : "VEC2"
        },
        {
            "bufferView" : 12,
            "componentType" : 5123,
            "count" : 5298,
            "type" : "SCALAR"
        },
        {
            "bufferView" : 13,
            "componentType" : 5126,
            "count" : 2267,
            "max" : [
                0.050643909722566605,
                0.23695476353168488,
                0
            ],
            "min" : [
                0.001999917672947049,
                0.0019996166229248047,
                0
            ],
            "type" : "VEC3"
        },
        {
            "bufferView" : 14,
            "componentType" : 5126,
            "count" : 2267,
            "type" : "VEC3"
        },
        {
            "bufferView" : 15,
            "componentType" : 5126,
            "count" : 2267,
            "type" : "VEC2"
        },
        {
            "bufferView" : 16,
            "componentType" : 5123,
            "count" : 5298,
            "type" : "SCALAR"
        },
        {
            "bufferView" : 17,
            "componentType" : 5126,
            "count" : 2256,
            "max" : [
                0.050643909722566605,
                0.23695476353168488,
                0
            ],
            "min" : [
                0.001999917672947049,
                0.0019996166229248047,
                0
            ],
            "type" : "VEC3"
        },
        {
            "bufferView" : 18,
            "componentType" : 5126,
            "count" : 2256,
            "type" : "VEC3"
        },
        {
            "bufferView" : 19,
            "componentType" : 5126,
            "count" : 2256,
            "type" : "VEC2"
        },
        {
            "bufferView" : 20,
            "componentType" : 5123,
            "count" : 5304,
            "type" : "SCALAR"
        },
        {
            "bufferView" : 21,
            "componentType" : 5126,
            "count" : 2248,
            "max" : [
                0.050643909722566605,
                0.23695476353168488,
                0
            ],
            "min" : [
                0.001999917672947049,
                0.0019996166229248047,
                0
            ],
            "type" : "VEC3"
        },
        {
            "bufferView" : 22,
            "componentType" : 5126,
            "count" : 2248,
            "type" : "VEC3"
        },
        {
            "bufferView" : 23,
            "componentType" : 5126,
            "count" : 2248,
            "type" : "VEC2"
        },
        {
            "bufferView" : 24,
            "componentType" : 5123,
            "count" : 5298,
            "type" : "SCALAR"
        },
        {
            "bufferView" : 25,
            "componentType" : 5126,
            "count" : 2299,
            "max" : [
                0.050643909722566605,
                0.23695476353168488,
                0
            ],
            "min" : [
                0.001999917672947049,
                0.0019996166229248047,
                0
            ],
            "type" : "VEC3"
        },
        {
            "bufferView" : 26,
            "componentType" : 5126,
            "count" : 2299,
            "type" : "VEC3"
        },
        {
            "bufferView" : 27,
            "componentType" : 5126,
            "count" : 2299,
            "type" : "VEC2"
        },
        {
            "bufferView" : 28,
            "componentType" : 5123,
            "count" : 5298,
            "type" : "SCALAR"
        },
        {
            "bufferView" : 29,
            "componentType" : 5126,
            "count" : 2311,
            "max" : [
                0.050643909722566605,
                0.23695476353168488,
                0
            ],
            "min" : [
                0.001999917672947049,
                0.0019996166229248047,
                0
            ],
            "type" : "VEC3"
        },
        {
            "bufferView" : 30,
            "componentType" : 5126,
            "count" : 2311,
            "type" : "VEC3"
        },
        {
            "bufferView" : 31,
            "componentType" : 5126,
            "count" : 2311,
            "type" : "VEC2"
        },
        {
            "bufferView" : 32,
            "componentType" : 5123,
            "count" : 5298,
            "type" : "SCALAR"
        },
        {
            "bufferView" : 33,
            "componentType" : 5126,
            "count" : 2295,
            "max" : [
                0.050643909722566605,
                0.23695476353168488,
                0
            ],
            "min" : [
                0.001999917672947049,
                0.0019996166229248047,
                0
            ],
            "type" : "VEC3"
        },
        {
            "bufferView" : 34,
            "componentType" : 5126,
            "count" : 2295,
            "type" : "VEC3"
        },
        {
            "bufferView" : 35,
            "componentType" : 5126,
            "count" : 2295,
            "type" : "VEC2"
        },
        {
            "bufferView" : 36,
            "componentType" : 5123,
            "count" : 5304,
            "type" : "SCALAR"
        },
        {
            "bufferView" : 37,
            "componentType" : 5126,
            "count" : 2258,
            "max" : [
                0.050643909722566605,
                0.23695476353168488,
                0
            ],
            "min" : [
                0.001999917672947049,
                0.0019996166229248047,
                0
            ],
            "type" : "VEC3"
        },
        {
            "bufferView" : 38,
            "componentType" : 5126,
            "count" : 2258,
            "type" : "VEC3"
        },
        {
            "bufferView" : 39,
            "componentType" : 5126,
            "count" : 2258,
            "type" : "VEC2"
        },
        {
            "bufferView" : 40,
            "componentType" : 5123,
            "count" : 5304,
            "type" : "SCALAR"
        }
    ],
    "bufferViews" : [
        {
            "buffer" : 0,
            "byteLength" : 28284,
            "byteOffset" : 0
        },
        {
            "buffer" : 0,
            "byteLength" : 28284,
            "byteOffset" : 28284
        },
        {
            "buffer" : 0,
            "byteLength" : 18856,
            "byteOffset" : 56568
        },
        {
            "buffer" : 0,
            "byteLength" : 10596,
            "byteOffset" : 75424
        },
        {
            "buffer" : 0,
            "byteLength" : 1745283,
            "byteOffset" : 86020
        },
        {
            "buffer" : 0,
            "byteLength" : 27048,
            "byteOffset" : 1831304
        },
        {
            "buffer" : 0,
            "byteLength" : 27048,
            "byteOffset" : 1858352
        },
        {
            "buffer" : 0,
            "byteLength" : 18032,
            "byteOffset" : 1885400
        },
        {
            "buffer" : 0,
            "byteLength" : 10608,
            "byteOffset" : 1903432
        },
        {
            "buffer" : 0,
            "byteLength" : 27432,
            "byteOffset" : 1914040
        },
        {
            "buffer" : 0,
            "byteLength" : 27432,
            "byteOffset" : 1941472
        },
        {
            "buffer" : 0,
            "byteLength" : 18288,
            "byteOffset" : 1968904
        },
        {
            "buffer" : 0,
            "byteLength" : 10596,
            "byteOffset" : 1987192
        },
        {
            "buffer" : 0,
            "byteLength" : 27204,
            "byteOffset" : 1997788
        },
        {
            "buffer" : 0,
            "byteLength" : 27204,
            "byteOffset" : 2024992
        },
        {
            "buffer" : 0,
            "byteLength" : 18136,
            "byteOffset" : 2052196
        },
        {
            "buffer" : 0,
            "byteLength" : 10596,
            "byteOffset" : 2070332
        },
        {
            "buffer" : 0,
            "byteLength" : 27072,
            "byteOffset" : 2080928
        },
        {
            "buffer" : 0,
            "byteLength" : 27072,
            "byteOffset" : 2108000
        },
        {
            "buffer" : 0,
            "byteLength" : 18048,
            "byteOffset" : 2135072
        },
        {
            "buffer" : 0,
            "byteLength" : 10608,
            "byteOffset" : 2153120
        },
        {
            "buffer" : 0,
            "byteLength" : 26976,
            "byteOffset" : 2163728
        },
        {
            "buffer" : 0,
            "byteLength" : 26976,
            "byteOffset" : 2190704
        },
        {
            "buffer" : 0,
            "byteLength" : 17984,
            "byteOffset" : 2217680
        },
        {
            "buffer" : 0,
            "byteLength" : 10596,
            "byteOffset" : 2235664
        },
        {
            "buffer" : 0,
            "byteLength" : 27588,
            "byteOffset" : 2246260
        },
        {
            "buffer" : 0,
            "byteLength" : 27588,
            "byteOffset" : 2273848
        },
        {
            "buffer" : 0,
            "byteLength" : 18392,
            "byteOffset" : 2301436
        },
        {
            "buffer" : 0,
            "byteLength" : 10596,
            "byteOffset" : 2319828
        },
        {
            "buffer" : 0,
            "byteLength" : 27732,
            "byteOffset" : 2330424
        },
        {
            "buffer" : 0,
            "byteLength" : 27732,
            "byteOffset" : 2358156
        },
        {
            "buffer" : 0,
            "byteLength" : 18488,
            "byteOffset" : 2385888
        },
        {
            "buffer" : 0,
            "byteLength" : 10596,
            "byteOffset" : 2404376
        },
        {
            "buffer" : 0,
            "byteLength" : 27540,
            "byteOffset" : 2414972
        },
        {
            "buffer" : 0,
            "byteLength" : 27540,
            "byteOffset" : 2442512
        },
        {
            "buffer" : 0,
            "byteLength" : 18360,
            "byteOffset" : 2470052
        },
        {
            "buffer" : 0,
            "byteLength" : 10608,
            "byteOffset" : 2488412
        },
        {
            "buffer" : 0,
            "byteLength" : 27096,
            "byteOffset" : 2499020
        },
        {
            "buffer" : 0,
            "byteLength" : 27096,
            "byteOffset" : 2526116
        },
        {
            "buffer" : 0,
            "byteLength" : 18064,
            "byteOffset" : 2553212
        },
        {
            "buffer" : 0,
            "byteLength" : 10608,
            "byteOffset" : 2571276
        }
    ],
    "buffers" : [
        {
            "byteLength" : 2581884,
            "uri" : "data:application/octet-stream;base64,"
        }
    ]
}
